<svg width="228" height="249" viewBox="0 0 228 249" fill="none" xmlns="http://www.w3.org/2000/svg">
<g id="Spark Logo-white3">
<g id="Shadowblur">
<g id="Shadowblur32" opacity="0.3" filter="url(#filter0_f_6380_7006)">
<g id="Vector">
<path d="M73.6553 110.239L36.566 88.843C32.8788 86.6818 31.5774 81.9272 33.7463 78.037C35.9153 74.363 40.687 73.0662 44.5912 75.2274L81.6805 96.6233C85.3678 98.7845 86.6691 103.539 84.5002 107.429C82.1143 111.103 77.3426 112.4 73.6553 110.239Z" fill="#F68B1F"/>
<path d="M73.6553 110.239L36.566 88.843C32.8788 86.6818 31.5774 81.9272 33.7463 78.037C35.9153 74.363 40.687 73.0662 44.5912 75.2274L81.6805 96.6233C85.3678 98.7845 86.6691 103.539 84.5002 107.429C82.1143 111.103 77.3426 112.4 73.6553 110.239Z" stroke="white"/>
</g>
<g id="Vector_2">
<path d="M191.433 159.943L125.93 122.122C123.544 120.609 122.026 118.016 122.026 115.206V39.7803C122.026 35.4579 118.556 32 114.218 32C109.88 32 106.41 35.4579 106.41 39.7803V115.206C106.41 118.016 104.891 120.609 102.505 122.122L36.7857 159.943C33.0985 162.104 31.7971 166.859 33.9661 170.749C36.135 174.423 40.9068 175.72 44.8109 173.559L109.88 135.738C112.266 134.225 115.302 134.225 117.905 135.738L183.408 173.559C187.095 175.72 192.084 174.423 194.253 170.749C196.422 166.859 195.12 162.104 191.433 159.943Z" fill="#0050F0"/>
<path d="M191.433 159.943L125.93 122.122C123.544 120.609 122.026 118.016 122.026 115.206V39.7803C122.026 35.4579 118.556 32 114.218 32C109.88 32 106.41 35.4579 106.41 39.7803V115.206C106.41 118.016 104.891 120.609 102.505 122.122L36.7857 159.943C33.0985 162.104 31.7971 166.859 33.9661 170.749C36.135 174.423 40.9068 175.72 44.8109 173.559L109.88 135.738C112.266 134.225 115.302 134.225 117.905 135.738L183.408 173.559C187.095 175.72 192.084 174.423 194.253 170.749C196.422 166.859 195.12 162.104 191.433 159.943Z" stroke="white"/>
</g>
<g id="Vector_3">
<path d="M154.124 110.239L191.214 88.843C194.901 86.6818 196.202 81.9272 194.033 78.037C191.864 74.363 187.093 73.0662 183.189 75.2274L146.099 96.6233C142.412 98.7845 141.111 103.539 143.28 107.429C145.449 111.103 150.22 112.4 154.124 110.239Z" fill="#002D63"/>
<path d="M154.124 110.239L191.214 88.843C194.901 86.6818 196.202 81.9272 194.033 78.037C191.864 74.363 187.093 73.0662 183.189 75.2274L146.099 96.6233C142.412 98.7845 141.111 103.539 143.28 107.429C145.449 111.103 150.22 112.4 154.124 110.239Z" stroke="white"/>
</g>
<g id="Vector_4">
<path d="M106.187 166.428V209.22C106.187 213.542 109.657 217 113.995 217C118.333 217 121.804 213.542 121.804 209.22V166.428C121.804 162.106 118.333 158.648 113.995 158.648C109.657 158.432 106.187 161.89 106.187 166.428Z" fill="#002D63"/>
<path d="M106.187 166.428V209.22C106.187 213.542 109.657 217 113.995 217C118.333 217 121.804 213.542 121.804 209.22V166.428C121.804 162.106 118.333 158.648 113.995 158.648C109.657 158.432 106.187 161.89 106.187 166.428Z" stroke="white"/>
</g>
</g>
<g id="Shadowblur16" opacity="0.15" filter="url(#filter1_f_6380_7006)">
<g id="Vector_5">
<path d="M73.6553 102.239L36.566 80.843C32.8788 78.6818 31.5774 73.9272 33.7463 70.037C35.9153 66.363 40.687 65.0662 44.5912 67.2274L81.6805 88.6233C85.3678 90.7845 86.6691 95.5391 84.5002 99.4293C82.1143 103.103 77.3426 104.4 73.6553 102.239Z" fill="#F68B1F"/>
<path d="M73.6553 102.239L36.566 80.843C32.8788 78.6818 31.5774 73.9272 33.7463 70.037C35.9153 66.363 40.687 65.0662 44.5912 67.2274L81.6805 88.6233C85.3678 90.7845 86.6691 95.5391 84.5002 99.4293C82.1143 103.103 77.3426 104.4 73.6553 102.239Z" stroke="white"/>
</g>
<g id="Vector_6">
<path d="M191.434 151.943L125.931 114.122C123.545 112.609 122.027 110.016 122.027 107.206V31.7803C122.027 27.4579 118.557 24 114.219 24C109.881 24 106.411 27.4579 106.411 31.7803V107.206C106.411 110.016 104.892 112.609 102.506 114.122L36.7867 151.943C33.0994 154.104 31.7981 158.859 33.967 162.749C36.136 166.423 40.9077 167.72 44.8119 165.559L109.881 127.738C112.267 126.225 115.303 126.225 117.906 127.738L183.409 165.559C187.096 167.72 192.085 166.423 194.254 162.749C196.423 158.859 195.121 154.104 191.434 151.943Z" fill="#0050F0"/>
<path d="M191.434 151.943L125.931 114.122C123.545 112.609 122.027 110.016 122.027 107.206V31.7803C122.027 27.4579 118.557 24 114.219 24C109.881 24 106.411 27.4579 106.411 31.7803V107.206C106.411 110.016 104.892 112.609 102.506 114.122L36.7867 151.943C33.0994 154.104 31.7981 158.859 33.967 162.749C36.136 166.423 40.9077 167.72 44.8119 165.559L109.881 127.738C112.267 126.225 115.303 126.225 117.906 127.738L183.409 165.559C187.096 167.72 192.085 166.423 194.254 162.749C196.423 158.859 195.121 154.104 191.434 151.943Z" stroke="white"/>
</g>
<g id="Vector_7">
<path d="M154.124 102.239L191.214 80.843C194.901 78.6818 196.202 73.9272 194.033 70.037C191.864 66.363 187.093 65.0662 183.189 67.2274L146.099 88.6233C142.412 90.7845 141.111 95.5391 143.28 99.4293C145.449 103.103 150.22 104.4 154.124 102.239Z" fill="#002D63"/>
<path d="M154.124 102.239L191.214 80.843C194.901 78.6818 196.202 73.9272 194.033 70.037C191.864 66.363 187.093 65.0662 183.189 67.2274L146.099 88.6233C142.412 90.7845 141.111 95.5391 143.28 99.4293C145.449 103.103 150.22 104.4 154.124 102.239Z" stroke="white"/>
</g>
<g id="Vector_8">
<path d="M106.188 158.428V201.22C106.188 205.542 109.658 209 113.996 209C118.334 209 121.805 205.542 121.805 201.22V158.428C121.805 154.106 118.334 150.648 113.996 150.648C109.658 150.432 106.188 153.89 106.188 158.428Z" fill="#002D63"/>
<path d="M106.188 158.428V201.22C106.188 205.542 109.658 209 113.996 209C118.334 209 121.805 205.542 121.805 201.22V158.428C121.805 154.106 118.334 150.648 113.996 150.648C109.658 150.432 106.188 153.89 106.188 158.428Z" stroke="white"/>
</g>
</g>
<g id="Shadowblur4" opacity="0.25" filter="url(#filter2_f_6380_7006)">
<g id="Vector_9">
<path d="M73.6553 96.8092L36.566 75.4133C32.8788 73.2521 31.5774 68.4975 33.7463 64.6073C35.9153 60.9333 40.687 59.6365 44.5912 61.7977L81.6805 83.1936C85.3678 85.3548 86.6691 90.1095 84.5002 93.9996C82.1143 97.6736 77.3426 98.9704 73.6553 96.8092Z" fill="#F68B1F"/>
<path d="M73.6553 96.8092L36.566 75.4133C32.8788 73.2521 31.5774 68.4975 33.7463 64.6073C35.9153 60.9333 40.687 59.6365 44.5912 61.7977L81.6805 83.1936C85.3678 85.3548 86.6691 90.1095 84.5002 93.9996C82.1143 97.6736 77.3426 98.9704 73.6553 96.8092Z" stroke="white"/>
</g>
<g id="Vector_10">
<path d="M191.434 147.943L125.931 110.122C123.545 108.609 122.027 106.016 122.027 103.206V27.7803C122.027 23.4579 118.557 20 114.219 20C109.881 20 106.411 23.4579 106.411 27.7803V103.206C106.411 106.016 104.892 108.609 102.506 110.122L36.7867 147.943C33.0994 150.104 31.7981 154.859 33.967 158.749C36.136 162.423 40.9077 163.72 44.8119 161.559L109.881 123.738C112.267 122.225 115.303 122.225 117.906 123.738L183.409 161.559C187.096 163.72 192.085 162.423 194.254 158.749C196.423 154.859 195.121 150.104 191.434 147.943Z" fill="#0050F0"/>
<path d="M191.434 147.943L125.931 110.122C123.545 108.609 122.027 106.016 122.027 103.206V27.7803C122.027 23.4579 118.557 20 114.219 20C109.881 20 106.411 23.4579 106.411 27.7803V103.206C106.411 106.016 104.892 108.609 102.506 110.122L36.7867 147.943C33.0994 150.104 31.7981 154.859 33.967 158.749C36.136 162.423 40.9077 163.72 44.8119 161.559L109.881 123.738C112.267 122.225 115.303 122.225 117.906 123.738L183.409 161.559C187.096 163.72 192.085 162.423 194.254 158.749C196.423 154.859 195.121 150.104 191.434 147.943Z" stroke="white"/>
</g>
<g id="Vector_11">
<path d="M154.124 96.8092L191.214 75.4133C194.901 73.2521 196.202 68.4975 194.033 64.6073C191.864 60.9333 187.093 59.6365 183.189 61.7977L146.099 83.1936C142.412 85.3548 141.111 90.1095 143.28 93.9996C145.449 97.6736 150.22 98.9704 154.124 96.8092Z" fill="#002D63"/>
<path d="M154.124 96.8092L191.214 75.4133C194.901 73.2521 196.202 68.4975 194.033 64.6073C191.864 60.9333 187.093 59.6365 183.189 61.7977L146.099 83.1936C142.412 85.3548 141.111 90.1095 143.28 93.9996C145.449 97.6736 150.22 98.9704 154.124 96.8092Z" stroke="white"/>
</g>
<g id="Vector_12">
<path d="M106.188 152.998V195.79C106.188 200.113 109.658 203.57 113.996 203.57C118.334 203.57 121.805 200.113 121.805 195.79V152.998C121.805 148.676 118.334 145.218 113.996 145.218C109.658 145.002 106.188 148.46 106.188 152.998Z" fill="#002D63"/>
<path d="M106.188 152.998V195.79C106.188 200.113 109.658 203.57 113.996 203.57C118.334 203.57 121.805 200.113 121.805 195.79V152.998C121.805 148.676 118.334 145.218 113.996 145.218C109.658 145.002 106.188 148.46 106.188 152.998Z" stroke="white"/>
</g>
</g>
<g id="Shadowblur0" opacity="0.3" filter="url(#filter3_f_6380_7006)">
<g id="Vector_13">
<path d="M73.6553 96.2388L36.566 74.843C32.8788 72.6818 31.5774 67.9272 33.7463 64.037C35.9153 60.363 40.687 59.0662 44.5912 61.2274L81.6805 82.6233C85.3678 84.7845 86.6691 89.5391 84.5002 93.4293C82.1143 97.1033 77.3426 98.4 73.6553 96.2388Z" fill="#F68B1F"/>
<path d="M73.6553 96.2388L36.566 74.843C32.8788 72.6818 31.5774 67.9272 33.7463 64.037C35.9153 60.363 40.687 59.0662 44.5912 61.2274L81.6805 82.6233C85.3678 84.7845 86.6691 89.5391 84.5002 93.4293C82.1143 97.1033 77.3426 98.4 73.6553 96.2388Z" stroke="white"/>
</g>
<g id="Vector_14">
<path d="M191.434 145.943L125.931 108.122C123.545 106.609 122.027 104.016 122.027 101.206V25.7803C122.027 21.4579 118.557 18 114.219 18C109.881 18 106.411 21.4579 106.411 25.7803V101.206C106.411 104.016 104.892 106.609 102.506 108.122L36.7867 145.943C33.0994 148.104 31.7981 152.859 33.967 156.749C36.136 160.423 40.9077 161.72 44.8119 159.559L109.881 121.738C112.267 120.225 115.303 120.225 117.906 121.738L183.409 159.559C187.096 161.72 192.085 160.423 194.254 156.749C196.423 152.859 195.121 148.104 191.434 145.943Z" fill="#0050F0"/>
<path d="M191.434 145.943L125.931 108.122C123.545 106.609 122.027 104.016 122.027 101.206V25.7803C122.027 21.4579 118.557 18 114.219 18C109.881 18 106.411 21.4579 106.411 25.7803V101.206C106.411 104.016 104.892 106.609 102.506 108.122L36.7867 145.943C33.0994 148.104 31.7981 152.859 33.967 156.749C36.136 160.423 40.9077 161.72 44.8119 159.559L109.881 121.738C112.267 120.225 115.303 120.225 117.906 121.738L183.409 159.559C187.096 161.72 192.085 160.423 194.254 156.749C196.423 152.859 195.121 148.104 191.434 145.943Z" stroke="white"/>
</g>
<g id="Vector_15">
<path d="M154.124 96.2388L191.214 74.843C194.901 72.6818 196.202 67.9272 194.033 64.037C191.864 60.363 187.093 59.0662 183.189 61.2274L146.099 82.6233C142.412 84.7845 141.111 89.5391 143.28 93.4293C145.449 97.1033 150.22 98.4 154.124 96.2388Z" fill="#002D63"/>
<path d="M154.124 96.2388L191.214 74.843C194.901 72.6818 196.202 67.9272 194.033 64.037C191.864 60.363 187.093 59.0662 183.189 61.2274L146.099 82.6233C142.412 84.7845 141.111 89.5391 143.28 93.4293C145.449 97.1033 150.22 98.4 154.124 96.2388Z" stroke="white"/>
</g>
<g id="Vector_16">
<path d="M106.188 152.428V195.22C106.188 199.542 109.658 203 113.996 203C118.334 203 121.805 199.542 121.805 195.22V152.428C121.805 148.106 118.334 144.648 113.996 144.648C109.658 144.432 106.188 147.89 106.188 152.428Z" fill="#002D63"/>
<path d="M106.188 152.428V195.22C106.188 199.542 109.658 203 113.996 203C118.334 203 121.805 199.542 121.805 195.22V152.428C121.805 148.106 118.334 144.648 113.996 144.648C109.658 144.432 106.188 147.89 106.188 152.428Z" stroke="white"/>
</g>
</g>
</g>
<g id="Spark Logo-white">
<g id="Group">
<g id="Vector_17" filter="url(#filter4_i_6380_7006)">
<path d="M73.6564 94.2389L36.567 72.843C32.8798 70.6818 31.5783 65.9272 33.7473 62.037C35.9163 58.363 40.688 57.0662 44.5922 59.2274L81.6816 80.6233C85.3688 82.7845 86.6702 87.5392 84.5012 91.4293C82.1153 95.1034 77.3436 96.4001 73.6564 94.2389Z" fill="white"/>
</g>
</g>
<g id="Vector_18" filter="url(#filter5_i_6380_7006)">
<path d="M191.433 143.943L125.93 106.122C123.545 104.609 122.026 102.016 122.026 99.2063V23.7803C122.026 19.4579 118.556 16 114.218 16C109.88 16 106.41 19.4579 106.41 23.7803V99.2063C106.41 102.016 104.891 104.609 102.506 106.122L36.7857 143.943C33.0985 146.104 31.7971 150.859 33.9661 154.749C36.135 158.423 40.9068 159.72 44.8109 157.559L109.88 119.738C112.266 118.225 115.303 118.225 117.905 119.738L183.408 157.559C187.095 159.72 192.084 158.423 194.253 154.749C196.422 150.859 195.121 146.104 191.433 143.943Z" fill="white"/>
</g>
<g id="Group_2">
<g id="Vector_19" filter="url(#filter6_i_6380_7006)">
<path d="M154.123 94.2389L191.213 72.843C194.9 70.6818 196.201 65.9272 194.032 62.037C191.863 58.363 187.092 57.0662 183.188 59.2274L146.098 80.6233C142.411 82.7845 141.11 87.5392 143.279 91.4293C145.448 95.1034 150.219 96.4001 154.123 94.2389Z" fill="white"/>
</g>
</g>
<g id="Vector_20" filter="url(#filter7_i_6380_7006)">
<path d="M106.187 150.428V193.22C106.187 197.542 109.657 201 113.995 201C118.333 201 121.804 197.542 121.804 193.22V150.428C121.804 146.106 118.333 142.648 113.995 142.648C109.657 142.432 106.187 145.89 106.187 150.428Z" fill="white"/>
</g>
</g>
</g>
<defs>
<filter id="filter0_f_6380_7006" x="0.693848" y="0" width="226.611" height="249" filterUnits="userSpaceOnUse" color-interpolation-filters="sRGB">
<feFlood flood-opacity="0" result="BackgroundImageFix"/>
<feBlend mode="normal" in="SourceGraphic" in2="BackgroundImageFix" result="shape"/>
<feGaussianBlur stdDeviation="16" result="effect1_foregroundBlur_6380_7006"/>
</filter>
<filter id="filter1_f_6380_7006" x="16.6938" y="8" width="194.612" height="217" filterUnits="userSpaceOnUse" color-interpolation-filters="sRGB">
<feFlood flood-opacity="0" result="BackgroundImageFix"/>
<feBlend mode="normal" in="SourceGraphic" in2="BackgroundImageFix" result="shape"/>
<feGaussianBlur stdDeviation="8" result="effect1_foregroundBlur_6380_7006"/>
</filter>
<filter id="filter2_f_6380_7006" x="24.6938" y="12" width="178.612" height="199.57" filterUnits="userSpaceOnUse" color-interpolation-filters="sRGB">
<feFlood flood-opacity="0" result="BackgroundImageFix"/>
<feBlend mode="normal" in="SourceGraphic" in2="BackgroundImageFix" result="shape"/>
<feGaussianBlur stdDeviation="4" result="effect1_foregroundBlur_6380_7006"/>
</filter>
<filter id="filter3_f_6380_7006" x="28.6938" y="14" width="170.612" height="193" filterUnits="userSpaceOnUse" color-interpolation-filters="sRGB">
<feFlood flood-opacity="0" result="BackgroundImageFix"/>
<feBlend mode="normal" in="SourceGraphic" in2="BackgroundImageFix" result="shape"/>
<feGaussianBlur stdDeviation="2" result="effect1_foregroundBlur_6380_7006"/>
</filter>
<filter id="filter4_i_6380_7006" x="32.6948" y="54.1787" width="52.8589" height="41.1089" filterUnits="userSpaceOnUse" color-interpolation-filters="sRGB">
<feFlood flood-opacity="0" result="BackgroundImageFix"/>
<feBlend mode="normal" in="SourceGraphic" in2="BackgroundImageFix" result="shape"/>
<feColorMatrix in="SourceAlpha" type="matrix" values="0 0 0 0 0 0 0 0 0 0 0 0 0 0 0 0 0 0 127 0" result="hardAlpha"/>
<feOffset dy="-4"/>
<feGaussianBlur stdDeviation="2"/>
<feComposite in2="hardAlpha" operator="arithmetic" k2="-1" k3="1"/>
<feColorMatrix type="matrix" values="0 0 0 0 0.964706 0 0 0 0 0.545098 0 0 0 0 0.121569 0 0 0 0.25 0"/>
<feBlend mode="normal" in2="shape" result="effect1_innerShadow_6380_7006"/>
</filter>
<filter id="filter5_i_6380_7006" x="32.9136" y="12" width="162.392" height="146.607" filterUnits="userSpaceOnUse" color-interpolation-filters="sRGB">
<feFlood flood-opacity="0" result="BackgroundImageFix"/>
<feBlend mode="normal" in="SourceGraphic" in2="BackgroundImageFix" result="shape"/>
<feColorMatrix in="SourceAlpha" type="matrix" values="0 0 0 0 0 0 0 0 0 0 0 0 0 0 0 0 0 0 127 0" result="hardAlpha"/>
<feOffset dy="-4"/>
<feGaussianBlur stdDeviation="2"/>
<feComposite in2="hardAlpha" operator="arithmetic" k2="-1" k3="1"/>
<feColorMatrix type="matrix" values="0 0 0 0 0 0 0 0 0 0.313726 0 0 0 0 0.941176 0 0 0 0.25 0"/>
<feBlend mode="normal" in2="shape" result="effect1_innerShadow_6380_7006"/>
</filter>
<filter id="filter6_i_6380_7006" x="142.226" y="54.1787" width="52.8589" height="41.1089" filterUnits="userSpaceOnUse" color-interpolation-filters="sRGB">
<feFlood flood-opacity="0" result="BackgroundImageFix"/>
<feBlend mode="normal" in="SourceGraphic" in2="BackgroundImageFix" result="shape"/>
<feColorMatrix in="SourceAlpha" type="matrix" values="0 0 0 0 0 0 0 0 0 0 0 0 0 0 0 0 0 0 127 0" result="hardAlpha"/>
<feOffset dy="-4"/>
<feGaussianBlur stdDeviation="2"/>
<feComposite in2="hardAlpha" operator="arithmetic" k2="-1" k3="1"/>
<feColorMatrix type="matrix" values="0 0 0 0 0 0 0 0 0 0.176471 0 0 0 0 0.388235 0 0 0 0.25 0"/>
<feBlend mode="normal" in2="shape" result="effect1_innerShadow_6380_7006"/>
</filter>
<filter id="filter7_i_6380_7006" x="106.187" y="138.638" width="15.6167" height="62.3618" filterUnits="userSpaceOnUse" color-interpolation-filters="sRGB">
<feFlood flood-opacity="0" result="BackgroundImageFix"/>
<feBlend mode="normal" in="SourceGraphic" in2="BackgroundImageFix" result="shape"/>
<feColorMatrix in="SourceAlpha" type="matrix" values="0 0 0 0 0 0 0 0 0 0 0 0 0 0 0 0 0 0 127 0" result="hardAlpha"/>
<feOffset dy="-4"/>
<feGaussianBlur stdDeviation="2"/>
<feComposite in2="hardAlpha" operator="arithmetic" k2="-1" k3="1"/>
<feColorMatrix type="matrix" values="0 0 0 0 0 0 0 0 0 0.176471 0 0 0 0 0.388235 0 0 0 0.25 0"/>
<feBlend mode="normal" in2="shape" result="effect1_innerShadow_6380_7006"/>
</filter>
</defs>
</svg>
